<svg width="32" height="33" viewBox="0 0 32 33" fill="none" xmlns="http://www.w3.org/2000/svg">
<path d="M27.6133 26.22L23.08 21.7C24.5426 19.8366 25.3363 17.5355 25.3333 15.1667C25.3333 13.057 24.7077 10.9947 23.5357 9.24059C22.3636 7.48646 20.6977 6.11929 18.7486 5.31196C16.7995 4.50462 14.6548 4.29339 12.5857 4.70496C10.5166 5.11654 8.61595 6.13244 7.12419 7.6242C5.63243 9.11596 4.61653 11.0166 4.20496 13.0857C3.79338 15.1548 4.00462 17.2996 4.81195 19.2486C5.61929 21.1977 6.98646 22.8636 8.74058 24.0357C10.4947 25.2077 12.557 25.8333 14.6667 25.8333C17.0355 25.8363 19.3366 25.0427 21.2 23.58L25.72 28.1133C25.844 28.2383 25.9914 28.3375 26.1539 28.4052C26.3164 28.4729 26.4907 28.5077 26.6667 28.5077C26.8427 28.5077 27.017 28.4729 27.1794 28.4052C27.3419 28.3375 27.4894 28.2383 27.6133 28.1133C27.7383 27.9894 27.8375 27.8419 27.9052 27.6794C27.9729 27.517 28.0077 27.3427 28.0077 27.1667C28.0077 26.9907 27.9729 26.8164 27.9052 26.6539C27.8375 26.4914 27.7383 26.344 27.6133 26.22ZM6.66667 15.1667C6.66667 13.5844 7.13586 12.0377 8.01491 10.7221C8.89396 9.40652 10.1434 8.38114 11.6052 7.77564C13.067 7.17013 14.6755 7.01171 16.2274 7.32039C17.7792 7.62907 19.2047 8.391 20.3235 9.50982C21.4423 10.6286 22.2043 12.0541 22.5129 13.6059C22.8216 15.1578 22.6632 16.7663 22.0577 18.2281C21.4522 19.6899 20.4268 20.9394 19.1112 21.8184C17.7956 22.6975 16.2489 23.1667 14.6667 23.1667C12.5449 23.1667 10.5101 22.3238 9.00981 20.8235C7.50952 19.3232 6.66667 17.2884 6.66667 15.1667Z" fill="#040404"/>
</svg>
