<svg width="76" height="76" viewBox="0 0 76 76" fill="none" xmlns="http://www.w3.org/2000/svg">
<path d="M35.7833 61.1167C35.2028 60.5361 34.8988 59.7972 34.8713 58.9C34.8439 58.0028 35.1215 57.2639 35.7042 56.6833L51.2208 41.1667H15.8333C14.9361 41.1667 14.1835 40.8627 13.5755 40.2547C12.9675 39.6467 12.6646 38.8951 12.6667 38C12.6667 37.1028 12.9707 36.3502 13.5787 35.7422C14.1867 35.1342 14.9382 34.8312 15.8333 34.8333H51.2208L35.7042 19.3167C35.1236 18.7361 34.846 17.9972 34.8713 17.1C34.8967 16.2028 35.2007 15.4639 35.7833 14.8833C36.3639 14.3028 37.1028 14.0125 38 14.0125C38.8972 14.0125 39.6361 14.3028 40.2167 14.8833L61.1167 35.7833C61.4333 36.0472 61.6582 36.3776 61.7912 36.7745C61.9242 37.1714 61.9896 37.5799 61.9875 38C61.9875 38.4222 61.9221 38.8181 61.7912 39.1875C61.6603 39.557 61.4354 39.9 61.1167 40.2167L40.2167 61.1167C39.6361 61.6972 38.8972 61.9875 38 61.9875C37.1028 61.9875 36.3639 61.6972 35.7833 61.1167Z" fill="white"/>
</svg>
