<svg width="32" height="33" viewBox="0 0 32 33" fill="none" xmlns="http://www.w3.org/2000/svg">
<path d="M16 16.5001C16.7333 16.5001 17.3613 16.2387 17.884 15.7161C18.4067 15.1934 18.6676 14.5659 18.6667 13.8334C18.6667 13.1001 18.4053 12.4721 17.8827 11.9494C17.36 11.4267 16.7325 11.1659 16 11.1667C15.2667 11.1667 14.6387 11.4281 14.116 11.9507C13.5933 12.4734 13.3325 13.101 13.3333 13.8334C13.3333 14.5667 13.5947 15.1947 14.1173 15.7174C14.64 16.2401 15.2676 16.501 16 16.5001ZM16 26.3001C18.7111 23.8112 20.7222 21.5499 22.0333 19.5161C23.3445 17.4823 24 15.677 24 14.1001C24 11.6779 23.2276 9.69475 21.6827 8.15075C20.1378 6.60675 18.2436 5.8343 16 5.83341C13.7556 5.83341 11.8609 6.60586 10.316 8.15075C8.77112 9.69564 7.99912 11.6787 8.00001 14.1001C8.00001 15.6779 8.65557 17.4836 9.96668 19.5174C11.2778 21.5512 13.2889 23.8121 16 26.3001ZM16 29.8334C12.4222 26.789 9.75023 23.9614 7.98401 21.3507C6.21779 18.7401 5.33423 16.3232 5.33334 14.1001C5.33334 10.7667 6.40579 8.11119 8.55068 6.13341C10.6956 4.15564 13.1787 3.16675 16 3.16675C18.8222 3.16675 21.3058 4.15564 23.4507 6.13341C25.5956 8.11119 26.6676 10.7667 26.6667 14.1001C26.6667 16.3223 25.7831 18.7392 24.016 21.3507C22.2489 23.9623 19.5769 26.7899 16 29.8334Z" fill="#040404"/>
</svg>
