<svg width="34" height="34" viewBox="0 0 34 34" fill="none" xmlns="http://www.w3.org/2000/svg">
<path d="M15.4062 27.3417L6.05623 17.9917C5.91456 17.85 5.81398 17.6965 5.75448 17.5313C5.69498 17.366 5.6657 17.1889 5.66665 17C5.66665 16.8111 5.6964 16.634 5.7559 16.4688C5.8154 16.3035 5.91551 16.15 6.05623 16.0083L15.4062 6.65834C15.666 6.39862 15.9908 6.26309 16.3809 6.25175C16.771 6.24042 17.1072 6.37595 17.3896 6.65834C17.6729 6.91806 17.8207 7.24295 17.833 7.633C17.8453 8.02306 17.7093 8.35928 17.425 8.64167L10.4833 15.5833H26.3146C26.716 15.5833 27.0526 15.7193 27.3246 15.9913C27.5966 16.2633 27.7322 16.5996 27.7312 17C27.7312 17.4014 27.5957 17.7381 27.3246 18.0101C27.0536 18.2821 26.7169 18.4176 26.3146 18.4167H10.4833L17.425 25.3583C17.6847 25.6181 17.8207 25.9486 17.833 26.35C17.8453 26.7514 17.7093 27.0819 17.425 27.3417C17.1653 27.625 16.8347 27.7667 16.4333 27.7667C16.0319 27.7667 15.6896 27.625 15.4062 27.3417Z" fill="white"/>
</svg>
