<svg width="48" height="48" viewBox="0 0 48 48" fill="none" xmlns="http://www.w3.org/2000/svg">
<path d="M24 47.1312C12.4552 47.1312 0 39.8898 0 24.0002C0 8.11052 12.4552 0.869141 24 0.869141C30.4138 0.869141 36.331 2.97949 40.7172 6.82776C45.4759 11.0485 48 17.0071 48 24.0002C48 30.9933 45.4759 36.9105 40.7172 41.1312C36.331 44.9795 30.3724 47.1312 24 47.1312Z" fill="url(#paint0_radial_50_373)"/>
<path d="M43.8165 10.25C46.022 13.8086 47.1724 18.0459 47.1724 22.759C47.1724 29.7521 44.6483 35.6693 39.8896 39.89C35.5034 43.7383 29.5448 45.89 23.1724 45.89C15.6993 45.89 7.8455 42.8486 3.23584 36.3976C7.68825 43.7052 16.0593 47.1314 24 47.1314C30.3724 47.1314 36.331 44.9797 40.7172 41.1314C45.4758 36.9107 48 30.9935 48 24.0003C48 18.7286 46.5641 14.0445 43.8165 10.25Z" fill="#EB8F00"/>
<path opacity="0.8" d="M8.95866 34.1092C12.958 34.1092 16.2 30.8671 16.2 26.8678C16.2 22.8685 12.958 19.6265 8.95866 19.6265C4.95936 19.6265 1.71729 22.8685 1.71729 26.8678C1.71729 30.8671 4.95936 34.1092 8.95866 34.1092Z" fill="url(#paint1_radial_50_373)"/>
<path opacity="0.8" d="M39.3722 34.1092C43.3715 34.1092 46.6136 30.8671 46.6136 26.8678C46.6136 22.8685 43.3715 19.6265 39.3722 19.6265C35.3729 19.6265 32.1309 22.8685 32.1309 26.8678C32.1309 30.8671 35.3729 34.1092 39.3722 34.1092Z" fill="url(#paint2_radial_50_373)"/>
<path d="M17.2056 12.7077C18.1615 12.7202 18.4387 11.4126 17.4249 11.1974C16.6677 11.0443 15.836 11.0236 15.0125 11.1271C12.7077 11.3795 10.7215 12.5671 9.4263 14.1146C8.78079 14.9091 9.83596 15.745 10.5394 15.1533C12.3394 13.6926 14.7146 12.7284 17.2056 12.7077Z" fill="#422B0D"/>
<path d="M30.8028 12.9894C29.8552 13.097 29.4497 11.8225 30.4345 11.508C31.1752 11.2846 31.9986 11.1811 32.8262 11.2018C35.1435 11.2266 37.2372 12.2115 38.6814 13.6266C39.4014 14.3549 38.4331 15.2901 37.6759 14.7687C35.7393 13.4901 33.2814 12.7659 30.8028 12.9894Z" fill="#422B0D"/>
<path d="M24.1655 37.7796C28.6344 37.7796 31.531 34.5107 32.3172 32.9796C32.6068 32.4003 32.6068 31.9038 32.3586 31.6969C32.1517 31.5314 31.862 31.5314 31.4896 31.6969C31.3655 31.7383 31.2413 31.821 31.1172 31.9038C29.131 33.3107 26.6896 34.1797 24.1655 34.1797C21.6413 34.1797 19.1999 33.3107 17.2137 31.9452C17.0896 31.8624 16.9655 31.7796 16.8413 31.7383C16.4689 31.5728 16.1792 31.5728 15.9723 31.7383C15.7241 31.9865 15.7241 32.4417 16.0137 33.021C16.7999 34.5107 19.6965 37.7796 24.1655 37.7796Z" fill="#422B0D"/>
<path d="M19.0346 23.3918L18.9519 23.309C18.9105 23.2677 18.7864 23.1435 18.745 23.1022C18.6622 23.0194 18.5795 22.978 18.4553 22.8539C18.3312 22.7711 18.207 22.647 18.0415 22.5642C17.876 22.4815 17.7105 22.3573 17.545 22.2746C17.3795 22.1918 17.1726 22.109 16.9657 22.0263C16.7588 21.9435 16.5519 21.9022 16.345 21.8608C16.1381 21.8194 15.9312 21.8194 15.6829 21.8194H15.6001H15.476C15.3519 21.8194 15.3519 21.8194 15.3105 21.8194C15.2277 21.8194 15.1036 21.8608 15.0208 21.8608C14.8139 21.9022 14.607 21.9435 14.4001 22.0263C14.1932 22.109 13.9864 22.1504 13.8208 22.2746C13.6553 22.3573 13.4898 22.4401 13.3243 22.5642C13.0346 22.7711 12.7863 22.978 12.6208 23.1022C12.4553 23.2677 12.3726 23.3504 12.3726 23.3504L12.2898 23.4332C11.7932 23.9297 10.9657 23.9297 10.3864 23.5159C9.97256 23.1849 9.84842 22.6056 10.0553 22.1918L10.0967 22.0677C10.1381 21.9849 10.1795 21.8608 10.2622 21.7366C10.4277 21.447 10.7174 21.0332 11.1726 20.578C11.3795 20.3711 11.6691 20.1228 11.9588 19.9159C12.2484 19.709 12.6208 19.5022 12.9932 19.3366C13.3657 19.1711 13.8208 19.0056 14.2346 18.9228C14.4415 18.8815 14.6898 18.8401 14.9381 18.7987C15.0622 18.7987 15.2277 18.7573 15.2691 18.7573H15.6001C16.0553 18.7573 16.5105 18.7987 16.9657 18.8815C17.4208 18.9642 17.8346 19.1297 18.207 19.2953C18.5795 19.4608 18.9519 19.6677 19.2415 19.8746C19.5726 20.0815 19.8208 20.2884 20.0277 20.5366C20.2346 20.7435 20.4415 20.9504 20.5657 21.1573C20.6484 21.2401 20.6898 21.3642 20.7726 21.447C20.8139 21.5297 20.8967 21.6125 20.9381 21.6953C21.0622 21.8608 21.0622 21.9435 21.1036 22.0263C21.145 22.109 21.145 22.109 21.145 22.109C21.4346 22.7297 21.1036 23.4332 20.4001 23.6815C20.0277 23.8884 19.407 23.7642 19.0346 23.3918Z" fill="#422B0D"/>
<path d="M35.9627 23.243C35.9627 23.243 35.9338 23.214 35.88 23.1602C35.8345 23.1147 35.731 22.9989 35.669 22.9533C35.5903 22.8871 35.4952 22.8085 35.3834 22.7175C35.2634 22.6265 35.1269 22.5271 34.9779 22.4237C34.8248 22.3285 34.6593 22.2292 34.4814 22.1423C34.3076 22.0471 34.1089 21.9809 33.9103 21.9065C33.7117 21.8361 33.5007 21.7989 33.2896 21.7534C33.0786 21.7202 32.8593 21.7037 32.64 21.7037H32.6979H32.6938H32.6855H32.6689H32.6358H32.5696L32.4414 21.7078C32.3338 21.7078 32.3172 21.7161 32.2758 21.7202C32.2096 21.7202 32.0896 21.7409 31.9862 21.7575C31.7752 21.803 31.5641 21.8402 31.3655 21.9106C31.171 21.9851 30.9724 22.0513 30.7986 22.1465C30.6207 22.2375 30.4552 22.3327 30.3021 22.4278C30.0041 22.6265 29.76 22.8251 29.5986 22.974C29.4331 23.123 29.3379 23.214 29.3379 23.214L29.2345 23.3175C28.7338 23.8016 27.8896 23.8306 27.3434 23.3878C26.9131 23.0361 26.8055 22.494 27.0207 22.043C27.0207 22.043 27.0414 22.0016 27.0827 21.9189C27.1241 21.8402 27.1738 21.7161 27.2648 21.5713C27.4345 21.2775 27.7158 20.8637 28.1627 20.4292C28.3862 20.214 28.6469 19.9865 28.9572 19.7796C29.2593 19.5644 29.611 19.3699 30 19.2002C30.3889 19.0347 30.811 18.8899 31.2579 18.7989C31.4855 18.7575 31.6965 18.7161 31.9738 18.6913C32.1021 18.6789 32.2552 18.6665 32.3214 18.6623L32.64 18.6499C33.1076 18.6582 33.571 18.7078 34.0221 18.7947C34.4689 18.8858 34.891 19.0306 35.28 19.1961C35.6648 19.3658 36.0207 19.5602 36.3227 19.7754C36.6331 19.9823 36.8896 20.2058 37.1131 20.4251C37.3365 20.6402 37.5145 20.8554 37.6634 21.0499C37.7338 21.1492 37.8 21.2402 37.8621 21.3271C37.92 21.4223 37.9779 21.5092 38.0234 21.5878C38.1352 21.7616 38.1434 21.8278 38.1848 21.9065C38.2138 21.9727 38.2303 22.0099 38.2303 22.0099C38.5076 22.6265 38.1724 23.3258 37.4814 23.574C36.9393 23.7685 36.331 23.6196 35.9627 23.243Z" fill="#422B0D"/>
<defs>
<radialGradient id="paint0_radial_50_373" cx="0" cy="0" r="1" gradientUnits="userSpaceOnUse" gradientTransform="translate(24 24.0001) scale(23.5695 23.5695)">
<stop offset="0.5" stop-color="#FDE030"/>
<stop offset="0.9188" stop-color="#F7C02B"/>
<stop offset="1" stop-color="#F4A223"/>
</radialGradient>
<radialGradient id="paint1_radial_50_373" cx="0" cy="0" r="1" gradientUnits="userSpaceOnUse" gradientTransform="translate(8.9589 26.8673) scale(7.8778 7.48355)">
<stop stop-color="#ED7770"/>
<stop offset="0.9" stop-color="#ED7770" stop-opacity="0"/>
</radialGradient>
<radialGradient id="paint2_radial_50_373" cx="0" cy="0" r="1" gradientUnits="userSpaceOnUse" gradientTransform="translate(39.3732 26.8673) scale(7.8778 7.48355)">
<stop stop-color="#ED7770"/>
<stop offset="0.9" stop-color="#ED7770" stop-opacity="0"/>
</radialGradient>
</defs>
</svg>
