<svg width="49" height="48" viewBox="0 0 49 48" fill="none" xmlns="http://www.w3.org/2000/svg">
<path d="M24.2033 46.8691C12.5607 46.8691 0 39.5664 0 23.5421C0 7.51782 12.5607 0.215088 24.2033 0.215088C30.6715 0.215088 36.6389 2.34331 41.0622 6.2242C45.8612 10.4806 48.4067 16.4898 48.4067 23.5421C48.4067 30.5945 45.8612 36.5618 41.0622 40.8183C36.6389 44.6992 30.6298 46.8691 24.2033 46.8691Z" fill="url(#paint0_radial_46_215)"/>
<path d="M24.2033 46.8691C12.5607 46.8691 0 39.5664 0 23.5421C0 7.51782 12.5607 0.215088 24.2033 0.215088C30.6715 0.215088 36.6389 2.34331 41.0622 6.2242C45.8612 10.4806 48.4067 16.4898 48.4067 23.5421C48.4067 30.5945 45.8612 36.5618 41.0622 40.8183C36.6389 44.6992 30.6298 46.8691 24.2033 46.8691Z" fill="url(#paint1_linear_46_215)"/>
<path d="M44.1877 9.67529C46.4119 13.2641 47.572 17.5372 47.572 22.2902C47.572 29.3426 45.0265 35.31 40.2275 39.5664C35.8042 43.4473 29.7951 45.6173 23.3687 45.6173C15.8322 45.6173 7.92859 42.5501 3.26318 36.0444C7.75332 43.4139 16.1995 46.8692 24.2033 46.8692C30.6297 46.8692 36.6388 44.6992 41.0621 40.8183C45.8611 36.5619 48.4066 30.5945 48.4066 23.5421C48.4066 18.2258 46.9586 13.5019 44.1877 9.67529Z" fill="#EB8F00"/>
<path opacity="0.66" d="M0.367188 28.6374C0.784487 27.5482 2.62895 27.5315 3.99352 28.1909C6.63502 29.472 6.32205 32.2762 7.64488 32.8354C8.96772 33.3946 13.1449 29.9686 19.0163 29.4261C19.6756 29.3635 23.569 28.8752 23.9529 30.5111C24.1032 31.1579 23.0015 31.2831 23.0015 31.2831C20.6145 32.1677 18.1859 33.0691 16.0493 34.4671C13.6248 36.0486 11.5049 38.2853 8.68813 38.9447C7.59064 39.1992 6.35126 39.1617 5.45824 38.4815C4.34822 37.6469 4.10201 36.1154 3.69723 34.7842C3.23403 33.2611 2.47038 31.8422 1.46051 30.6112" fill="url(#paint2_linear_46_215)"/>
<path d="M0.317148 28.6332C-0.442337 29.5554 1.17261 32.005 1.46055 33.2527C2.15326 36.2656 1.46055 37.0084 1.4063 39.6875C1.3604 42.6336 2.2409 45.1124 4.48597 46.6939C6.5975 48.192 8.92185 48.3631 12.1768 47.4033C15.4317 46.4435 17.6309 45.9803 17.7978 44.3779C17.8896 43.7144 17.5391 43.0634 16.9298 42.7797C17.2553 42.6253 17.514 42.3624 17.6601 42.0327C18.4363 40.1799 16.8881 39.7876 16.8881 39.7876C17.1009 39.5331 17.2804 39.2535 17.4222 38.953C17.8854 38.0308 17.8103 36.7789 16.475 36.3699C15.8615 36.1822 15.6946 36.2823 15.6946 36.2823C16.3289 35.6313 17.0884 35.1097 17.9272 34.7592C20.1722 33.7952 22.8346 33.211 23.4981 32.6476C24.4621 31.813 24.5205 30.2064 22.8179 29.7265C20.3725 29.0088 15.8741 30.678 13.1366 32.4181C10.3991 34.1583 7.88695 35.0972 7.05236 34.78C6.21776 34.4629 5.70031 33.9454 5.38316 32.6935C4.79477 30.365 4.33991 29.4636 3.34257 28.5915C2.51631 27.8821 0.901367 27.9238 0.317148 28.6332Z" fill="url(#paint3_radial_46_215)"/>
<path d="M13.8876 37.6802C13.8876 37.6802 13.2742 37.2629 15.7238 35.3058C17.393 33.9662 18.3569 33.7242 20.3558 33.2193C24.3952 32.2303 24.1407 30.9575 24.1407 30.9575C24.3577 32.8312 22.5049 33.2485 21.1487 33.6741C21.0068 33.7159 20.8732 33.7701 20.7314 33.8035C16.0868 34.9886 14.4635 38.0516 13.8876 37.6802Z" fill="url(#paint4_linear_46_215)"/>
<path d="M17.6936 42.3248C18.0567 41.7239 18.1568 40.9936 17.9649 40.3176C17.8313 39.9212 17.5768 39.5748 17.2304 39.3369C17.2805 39.2702 17.3306 39.2076 17.3765 39.1325C17.7479 38.5524 17.8021 37.8221 17.5225 37.192C17.2054 36.6954 16.6879 36.3658 16.1079 36.2906C16.5043 36.4826 16.8006 36.8373 16.9174 37.263C16.9842 37.7762 16.9091 38.302 16.7088 38.7778C16.4417 39.4287 15.845 39.8836 15.1481 39.9754C14.1382 40.1757 14.447 40.593 14.447 40.593C14.5347 40.9268 15.7281 40.618 16.6337 39.942C16.8882 40.0756 17.0802 40.3051 17.172 40.5763C17.268 40.9978 17.2095 41.4443 17.0092 41.8282C16.7296 42.4416 16.1872 42.9007 15.5362 43.0801C14.639 43.3263 14.8852 43.656 14.8852 43.656C14.8852 43.656 14.9269 44.3654 16.7714 43.197C16.9884 43.6143 17.2763 44.5448 16.7004 45.1457C14.7475 47.203 8.99292 47.9959 8.99292 47.9959C11.914 47.9959 15.9284 46.8692 17.172 45.8385C17.6561 45.4587 17.9398 44.8828 17.944 44.2694C17.9982 43.6977 17.7854 43.1302 17.3723 42.7296C17.4891 42.6044 17.5976 42.4709 17.6936 42.3248Z" fill="url(#paint5_linear_46_215)"/>
<path d="M29.7409 27.0516C29.6073 27.0266 29.4821 26.9724 29.3778 26.8847C27.4958 25.3741 25.2507 24.3893 22.8679 24.0221C20.4852 23.6089 18.0398 23.8343 15.7738 24.673C15.6487 24.7231 15.5151 24.7398 15.3816 24.7189C15.0895 24.6689 14.8516 24.4519 14.7723 24.1639C14.693 23.8802 14.789 23.5797 15.0144 23.3919C19.4377 19.7197 25.9977 20.329 29.6699 24.7523C29.9704 25.1154 30.2458 25.4993 30.4962 25.8957C30.6547 26.1419 30.6547 26.4591 30.4962 26.7053C30.3334 26.9598 30.0371 27.0934 29.7409 27.0516Z" fill="#422B0D"/>
<path d="M31.3684 10.2762C33.1169 10.2762 34.7068 11.7535 34.7068 14.2072C34.7068 16.6609 33.1169 18.134 31.3684 18.134C29.6199 18.134 28.03 16.6567 28.03 14.2072C28.03 11.7577 29.6199 10.2762 31.3684 10.2762Z" fill="#422B0D"/>
<path d="M16.9173 6.47461C15.1688 6.47461 13.5789 7.95185 13.5789 10.4014C13.5789 12.8509 15.1688 14.3324 16.9173 14.3324C18.6699 14.3324 20.2556 12.8551 20.2556 10.4014C20.2556 7.94768 18.6699 6.47461 16.9173 6.47461Z" fill="#422B0D"/>
<path d="M14.2425 1.72989C14.0547 1.42109 14.0297 1.03718 14.1757 0.70751C14.3343 0.377844 14.6473 0.152502 15.0103 0.106599C17.2846 -0.248105 19.6048 0.290211 21.491 1.6047C22.1962 2.08877 22.8222 2.67299 23.3521 3.34484C23.3855 3.38657 23.4147 3.43247 23.4439 3.48255C23.7277 3.92489 23.6317 4.5091 23.2228 4.83877C22.7846 5.20182 22.142 5.1893 21.7205 4.80539L21.8957 4.52162L21.6829 4.772C19.8552 3.24469 17.5684 2.37253 15.1897 2.30159C14.7933 2.30159 14.4261 2.09294 14.2258 1.75076L14.2425 1.72989Z" fill="#422B0D"/>
<path d="M36.4721 9.19531C36.7809 9.02422 36.9896 8.71124 37.0313 8.36071C37.0563 7.99766 36.9019 7.64713 36.614 7.42596C34.8071 5.98628 32.512 5.29774 30.2126 5.51473C29.3613 5.58567 28.5267 5.78598 27.7339 6.1073L27.5837 6.17824C27.1205 6.42444 26.916 6.97945 27.1079 7.46769C27.3124 7.99766 27.8674 8.29812 28.4224 8.1771V7.84326L28.4808 8.16875C30.8177 7.73476 33.2339 8.09781 35.3412 9.19948C35.6876 9.39561 36.1091 9.39561 36.4554 9.19948L36.4721 9.19531Z" fill="#422B0D"/>
<defs>
<radialGradient id="paint0_radial_46_215" cx="0" cy="0" r="1" gradientUnits="userSpaceOnUse" gradientTransform="translate(24.2033 23.5421) scale(23.7692 23.7692)">
<stop offset="0.5" stop-color="#FDE030"/>
<stop offset="0.92" stop-color="#F7C02B"/>
<stop offset="1" stop-color="#F4A223"/>
</radialGradient>
<linearGradient id="paint1_linear_46_215" x1="24.2033" y1="46.8691" x2="24.2033" y2="0.215088" gradientUnits="userSpaceOnUse">
<stop stop-color="#F4A223"/>
<stop offset="0.08" stop-color="#F7C02B"/>
<stop offset="0.54" stop-color="#FDE030" stop-opacity="0"/>
</linearGradient>
<linearGradient id="paint2_linear_46_215" x1="12.2575" y1="41.6988" x2="12.1531" y2="27.7694" gradientUnits="userSpaceOnUse">
<stop stop-color="#BF360C"/>
<stop offset="1" stop-color="#BF360C" stop-opacity="0.2"/>
</linearGradient>
<radialGradient id="paint3_radial_46_215" cx="0" cy="0" r="1" gradientUnits="userSpaceOnUse" gradientTransform="translate(14.9602 32.0597) scale(24.7083 23.2258)">
<stop offset="0.27" stop-color="#FFF176"/>
<stop offset="1" stop-color="#FFC400"/>
</radialGradient>
<linearGradient id="paint4_linear_46_215" x1="14.0551" y1="36.7841" x2="24.5669" y2="31.5637" gradientUnits="userSpaceOnUse">
<stop offset="0.13" stop-color="#DA6727"/>
<stop offset="1" stop-color="#FFC400"/>
</linearGradient>
<linearGradient id="paint5_linear_46_215" x1="13.5119" y1="47.1488" x2="13.5995" y2="31.3039" gradientUnits="userSpaceOnUse">
<stop offset="0.13" stop-color="#DA6727"/>
<stop offset="1" stop-color="#FFC400"/>
</linearGradient>
</defs>
</svg>
